<mxfile host="app.diagrams.net" modified="2024-04-14T20:52:40.286Z" agent="Mozilla/5.0 (Windows NT 10.0; Win64; x64; rv:124.0) Gecko/20100101 Firefox/124.0" etag="nnNKumUrcKxY6H8t25hB" version="24.2.5" type="github">
  <diagram name="Страница — 1" id="rPO9BrXukVFPL7EIGypB">
    <mxGraphModel dx="1511" dy="1835" grid="1" gridSize="10" guides="1" tooltips="1" connect="1" arrows="1" fold="1" page="1" pageScale="1" pageWidth="827" pageHeight="1169" math="0" shadow="0">
      <root>
        <mxCell id="0" />
        <mxCell id="1" parent="0" />
        <mxCell id="2uv9SMlyCUWuACrpGw8p-1" value="" style="shape=process;whiteSpace=wrap;html=1;backgroundOutline=1;rotation=90;" parent="1" vertex="1">
          <mxGeometry x="-183.75" y="248.75" width="1420" height="447.5" as="geometry" />
        </mxCell>
        <mxCell id="2uv9SMlyCUWuACrpGw8p-2" value="" style="shape=process;whiteSpace=wrap;html=1;backgroundOutline=1;rotation=90;" parent="1" vertex="1">
          <mxGeometry x="362.5" y="152.5" width="1420" height="640" as="geometry" />
        </mxCell>
        <mxCell id="2uv9SMlyCUWuACrpGw8p-4" value="&lt;div&gt;Отдели &lt;br&gt;&lt;/div&gt;&lt;div&gt;сетевой&lt;/div&gt;&lt;div&gt;инфраструктуры&lt;br&gt;&lt;/div&gt;" style="text;html=1;align=center;verticalAlign=middle;whiteSpace=wrap;rounded=0;rotation=0;" parent="1" vertex="1">
          <mxGeometry x="540" y="-210" width="60" height="90" as="geometry" />
        </mxCell>
        <mxCell id="2uv9SMlyCUWuACrpGw8p-5" value="отдел эксплуатации помещений" style="text;html=1;align=center;verticalAlign=middle;whiteSpace=wrap;rounded=0;rotation=0;" parent="1" vertex="1">
          <mxGeometry x="890" y="-210" width="60" height="90" as="geometry" />
        </mxCell>
        <mxCell id="9_xZ20xCX4EuuCot2BVn-7" value="" style="edgeStyle=orthogonalEdgeStyle;rounded=0;orthogonalLoop=1;jettySize=auto;html=1;" edge="1" parent="1" source="2uv9SMlyCUWuACrpGw8p-8" target="9_xZ20xCX4EuuCot2BVn-3">
          <mxGeometry relative="1" as="geometry" />
        </mxCell>
        <mxCell id="2uv9SMlyCUWuACrpGw8p-8" value="" style="ellipse;whiteSpace=wrap;html=1;aspect=fixed;" parent="1" vertex="1">
          <mxGeometry x="545" y="-70" width="20" height="20" as="geometry" />
        </mxCell>
        <mxCell id="9_xZ20xCX4EuuCot2BVn-17" value="" style="edgeStyle=orthogonalEdgeStyle;rounded=0;orthogonalLoop=1;jettySize=auto;html=1;" edge="1" parent="1" source="2uv9SMlyCUWuACrpGw8p-14" target="9_xZ20xCX4EuuCot2BVn-8">
          <mxGeometry relative="1" as="geometry" />
        </mxCell>
        <mxCell id="2uv9SMlyCUWuACrpGw8p-14" value="сбор данных об оборудовании и линиях связи" style="rounded=1;whiteSpace=wrap;html=1;" parent="1" vertex="1">
          <mxGeometry x="470" y="70" width="170" height="60" as="geometry" />
        </mxCell>
        <mxCell id="9_xZ20xCX4EuuCot2BVn-24" value="" style="edgeStyle=orthogonalEdgeStyle;rounded=0;orthogonalLoop=1;jettySize=auto;html=1;" edge="1" parent="1" source="2uv9SMlyCUWuACrpGw8p-23" target="9_xZ20xCX4EuuCot2BVn-23">
          <mxGeometry relative="1" as="geometry" />
        </mxCell>
        <mxCell id="2uv9SMlyCUWuACrpGw8p-23" value="Поиск помещений в соответствии с ТЗ" style="rounded=1;whiteSpace=wrap;html=1;" parent="1" vertex="1">
          <mxGeometry x="800" y="-20" width="240" height="60" as="geometry" />
        </mxCell>
        <mxCell id="9_xZ20xCX4EuuCot2BVn-31" value="" style="edgeStyle=orthogonalEdgeStyle;rounded=0;orthogonalLoop=1;jettySize=auto;html=1;" edge="1" parent="1" source="2uv9SMlyCUWuACrpGw8p-38" target="9_xZ20xCX4EuuCot2BVn-30">
          <mxGeometry relative="1" as="geometry" />
        </mxCell>
        <mxCell id="2uv9SMlyCUWuACrpGw8p-38" value="Подготовка модели затрат" style="rounded=1;whiteSpace=wrap;html=1;" parent="1" vertex="1">
          <mxGeometry x="490" y="435" width="120" height="60" as="geometry" />
        </mxCell>
        <mxCell id="2uv9SMlyCUWuACrpGw8p-40" value="да" style="text;html=1;align=center;verticalAlign=middle;whiteSpace=wrap;rounded=0;" parent="1" vertex="1">
          <mxGeometry x="790" y="310" width="60" height="30" as="geometry" />
        </mxCell>
        <mxCell id="2uv9SMlyCUWuACrpGw8p-42" value="нет" style="text;html=1;align=center;verticalAlign=middle;whiteSpace=wrap;rounded=0;rotation=0;" parent="1" vertex="1">
          <mxGeometry x="960" y="320" width="60" height="30" as="geometry" />
        </mxCell>
        <mxCell id="9_xZ20xCX4EuuCot2BVn-34" value="" style="edgeStyle=orthogonalEdgeStyle;rounded=0;orthogonalLoop=1;jettySize=auto;html=1;" edge="1" parent="1" source="2uv9SMlyCUWuACrpGw8p-48" target="2uv9SMlyCUWuACrpGw8p-52">
          <mxGeometry relative="1" as="geometry" />
        </mxCell>
        <mxCell id="2uv9SMlyCUWuACrpGw8p-48" value="Защита проекта" style="rounded=1;whiteSpace=wrap;html=1;" parent="1" vertex="1">
          <mxGeometry x="490" y="660" width="120" height="60" as="geometry" />
        </mxCell>
        <mxCell id="9_xZ20xCX4EuuCot2BVn-42" value="" style="edgeStyle=orthogonalEdgeStyle;rounded=0;orthogonalLoop=1;jettySize=auto;html=1;exitX=1;exitY=0.5;exitDx=0;exitDy=0;" edge="1" parent="1" source="2uv9SMlyCUWuACrpGw8p-52">
          <mxGeometry relative="1" as="geometry">
            <mxPoint x="1310" y="350" as="targetPoint" />
          </mxGeometry>
        </mxCell>
        <mxCell id="9_xZ20xCX4EuuCot2BVn-44" value="" style="edgeStyle=orthogonalEdgeStyle;rounded=0;orthogonalLoop=1;jettySize=auto;html=1;" edge="1" parent="1" source="2uv9SMlyCUWuACrpGw8p-52" target="9_xZ20xCX4EuuCot2BVn-43">
          <mxGeometry relative="1" as="geometry" />
        </mxCell>
        <mxCell id="2uv9SMlyCUWuACrpGw8p-52" value="одобрено" style="rhombus;whiteSpace=wrap;html=1;rounded=1;" parent="1" vertex="1">
          <mxGeometry x="515" y="760" width="70" height="70" as="geometry" />
        </mxCell>
        <mxCell id="2uv9SMlyCUWuACrpGw8p-54" value="" style="ellipse;whiteSpace=wrap;html=1;rounded=1;" parent="1" vertex="1">
          <mxGeometry x="532.5" y="980" width="35" height="40" as="geometry" />
        </mxCell>
        <mxCell id="2uv9SMlyCUWuACrpGw8p-56" value="да" style="text;html=1;align=center;verticalAlign=middle;whiteSpace=wrap;rounded=0;" parent="1" vertex="1">
          <mxGeometry x="472.5" y="840" width="60" height="30" as="geometry" />
        </mxCell>
        <mxCell id="2uv9SMlyCUWuACrpGw8p-61" value="нет" style="text;html=1;align=center;verticalAlign=middle;whiteSpace=wrap;rounded=0;rotation=0;" parent="1" vertex="1">
          <mxGeometry x="585" y="750" width="60" height="30" as="geometry" />
        </mxCell>
        <mxCell id="9_xZ20xCX4EuuCot2BVn-16" value="" style="edgeStyle=orthogonalEdgeStyle;rounded=0;orthogonalLoop=1;jettySize=auto;html=1;entryX=0.5;entryY=0;entryDx=0;entryDy=0;" edge="1" parent="1" source="9_xZ20xCX4EuuCot2BVn-3" target="2uv9SMlyCUWuACrpGw8p-14">
          <mxGeometry relative="1" as="geometry" />
        </mxCell>
        <mxCell id="9_xZ20xCX4EuuCot2BVn-3" value="Запрос на вынос узла связи" style="rounded=1;whiteSpace=wrap;html=1;" vertex="1" parent="1">
          <mxGeometry x="465" y="-20" width="180" height="60" as="geometry" />
        </mxCell>
        <mxCell id="9_xZ20xCX4EuuCot2BVn-18" value="" style="edgeStyle=orthogonalEdgeStyle;rounded=0;orthogonalLoop=1;jettySize=auto;html=1;entryX=0;entryY=0.5;entryDx=0;entryDy=0;" edge="1" parent="1" source="9_xZ20xCX4EuuCot2BVn-8" target="2uv9SMlyCUWuACrpGw8p-23">
          <mxGeometry relative="1" as="geometry" />
        </mxCell>
        <mxCell id="9_xZ20xCX4EuuCot2BVn-8" value="Формирование спецификации" style="rounded=1;whiteSpace=wrap;html=1;" vertex="1" parent="1">
          <mxGeometry x="460" y="170" width="190" height="60" as="geometry" />
        </mxCell>
        <mxCell id="9_xZ20xCX4EuuCot2BVn-10" value="ТЗ" style="rounded=0;whiteSpace=wrap;html=1;" vertex="1" parent="1">
          <mxGeometry x="495" y="270" width="120" height="60" as="geometry" />
        </mxCell>
        <mxCell id="9_xZ20xCX4EuuCot2BVn-12" value="" style="endArrow=none;dashed=1;html=1;dashPattern=1 3;strokeWidth=2;rounded=0;exitX=0.5;exitY=0;exitDx=0;exitDy=0;entryX=0.5;entryY=1;entryDx=0;entryDy=0;" edge="1" parent="1" source="9_xZ20xCX4EuuCot2BVn-10" target="9_xZ20xCX4EuuCot2BVn-8">
          <mxGeometry width="50" height="50" relative="1" as="geometry">
            <mxPoint x="870" y="200" as="sourcePoint" />
            <mxPoint x="920" y="150" as="targetPoint" />
          </mxGeometry>
        </mxCell>
        <mxCell id="9_xZ20xCX4EuuCot2BVn-28" value="" style="edgeStyle=orthogonalEdgeStyle;rounded=0;orthogonalLoop=1;jettySize=auto;html=1;" edge="1" parent="1" source="9_xZ20xCX4EuuCot2BVn-19" target="9_xZ20xCX4EuuCot2BVn-27">
          <mxGeometry relative="1" as="geometry" />
        </mxCell>
        <mxCell id="9_xZ20xCX4EuuCot2BVn-19" value="Организация выезда для осмотра помещения" style="rounded=1;whiteSpace=wrap;html=1;" vertex="1" parent="1">
          <mxGeometry x="790" y="180" width="260" height="60" as="geometry" />
        </mxCell>
        <mxCell id="9_xZ20xCX4EuuCot2BVn-21" value="" style="endArrow=none;dashed=1;html=1;dashPattern=1 3;strokeWidth=2;rounded=0;exitX=1;exitY=0.5;exitDx=0;exitDy=0;entryX=0;entryY=0.5;entryDx=0;entryDy=0;" edge="1" parent="1" source="9_xZ20xCX4EuuCot2BVn-10" target="2uv9SMlyCUWuACrpGw8p-23">
          <mxGeometry width="50" height="50" relative="1" as="geometry">
            <mxPoint x="870" y="340" as="sourcePoint" />
            <mxPoint x="920" y="290" as="targetPoint" />
            <Array as="points">
              <mxPoint x="770" y="210" />
            </Array>
          </mxGeometry>
        </mxCell>
        <mxCell id="9_xZ20xCX4EuuCot2BVn-22" value="протокол осмотра" style="rounded=0;whiteSpace=wrap;html=1;" vertex="1" parent="1">
          <mxGeometry x="1060" y="270" width="220" height="60" as="geometry" />
        </mxCell>
        <mxCell id="9_xZ20xCX4EuuCot2BVn-25" value="" style="edgeStyle=orthogonalEdgeStyle;rounded=0;orthogonalLoop=1;jettySize=auto;html=1;" edge="1" parent="1" source="9_xZ20xCX4EuuCot2BVn-23" target="9_xZ20xCX4EuuCot2BVn-19">
          <mxGeometry relative="1" as="geometry" />
        </mxCell>
        <mxCell id="9_xZ20xCX4EuuCot2BVn-23" value="Помещение найдено, требуется его осмотр" style="rounded=1;whiteSpace=wrap;html=1;" vertex="1" parent="1">
          <mxGeometry x="800" y="70" width="240" height="60" as="geometry" />
        </mxCell>
        <mxCell id="9_xZ20xCX4EuuCot2BVn-26" value="" style="endArrow=none;dashed=1;html=1;dashPattern=1 3;strokeWidth=2;rounded=0;entryX=0.464;entryY=-0.033;entryDx=0;entryDy=0;entryPerimeter=0;exitX=1;exitY=0.5;exitDx=0;exitDy=0;" edge="1" parent="1" source="9_xZ20xCX4EuuCot2BVn-19" target="9_xZ20xCX4EuuCot2BVn-22">
          <mxGeometry width="50" height="50" relative="1" as="geometry">
            <mxPoint x="870" y="310" as="sourcePoint" />
            <mxPoint x="920" y="260" as="targetPoint" />
          </mxGeometry>
        </mxCell>
        <mxCell id="9_xZ20xCX4EuuCot2BVn-29" value="" style="edgeStyle=orthogonalEdgeStyle;rounded=0;orthogonalLoop=1;jettySize=auto;html=1;entryX=1;entryY=0.5;entryDx=0;entryDy=0;" edge="1" parent="1" source="9_xZ20xCX4EuuCot2BVn-27" target="2uv9SMlyCUWuACrpGw8p-38">
          <mxGeometry relative="1" as="geometry">
            <Array as="points">
              <mxPoint x="710" y="353" />
              <mxPoint x="710" y="465" />
            </Array>
          </mxGeometry>
        </mxCell>
        <mxCell id="9_xZ20xCX4EuuCot2BVn-32" value="" style="edgeStyle=orthogonalEdgeStyle;rounded=0;orthogonalLoop=1;jettySize=auto;html=1;entryX=0.181;entryY=0.551;entryDx=0;entryDy=0;entryPerimeter=0;exitX=1;exitY=0.5;exitDx=0;exitDy=0;" edge="1" parent="1" source="9_xZ20xCX4EuuCot2BVn-27" target="2uv9SMlyCUWuACrpGw8p-2">
          <mxGeometry relative="1" as="geometry">
            <Array as="points">
              <mxPoint x="1310" y="353" />
              <mxPoint x="1310" y="20" />
            </Array>
          </mxGeometry>
        </mxCell>
        <mxCell id="9_xZ20xCX4EuuCot2BVn-27" value="одобрено" style="rhombus;whiteSpace=wrap;html=1;" vertex="1" parent="1">
          <mxGeometry x="890" y="320" width="60" height="65" as="geometry" />
        </mxCell>
        <mxCell id="9_xZ20xCX4EuuCot2BVn-33" value="" style="edgeStyle=orthogonalEdgeStyle;rounded=0;orthogonalLoop=1;jettySize=auto;html=1;" edge="1" parent="1" source="9_xZ20xCX4EuuCot2BVn-30" target="2uv9SMlyCUWuACrpGw8p-48">
          <mxGeometry relative="1" as="geometry" />
        </mxCell>
        <mxCell id="9_xZ20xCX4EuuCot2BVn-30" value="сбор данных по статьям ОПИКС КАПЕКС" style="rounded=1;whiteSpace=wrap;html=1;" vertex="1" parent="1">
          <mxGeometry x="490" y="540" width="120" height="60" as="geometry" />
        </mxCell>
        <mxCell id="9_xZ20xCX4EuuCot2BVn-37" value="модель" style="rounded=0;whiteSpace=wrap;html=1;" vertex="1" parent="1">
          <mxGeometry x="330" y="610" width="120" height="60" as="geometry" />
        </mxCell>
        <mxCell id="9_xZ20xCX4EuuCot2BVn-38" value="" style="endArrow=none;dashed=1;html=1;dashPattern=1 3;strokeWidth=2;rounded=0;entryX=0;entryY=0.5;entryDx=0;entryDy=0;exitX=0.5;exitY=0;exitDx=0;exitDy=0;" edge="1" parent="1" source="9_xZ20xCX4EuuCot2BVn-27" target="9_xZ20xCX4EuuCot2BVn-22">
          <mxGeometry width="50" height="50" relative="1" as="geometry">
            <mxPoint x="870" y="310" as="sourcePoint" />
            <mxPoint x="920" y="260" as="targetPoint" />
          </mxGeometry>
        </mxCell>
        <mxCell id="9_xZ20xCX4EuuCot2BVn-39" value="" style="endArrow=none;dashed=1;html=1;dashPattern=1 3;strokeWidth=2;rounded=0;entryX=0;entryY=0.5;entryDx=0;entryDy=0;exitX=0.5;exitY=0;exitDx=0;exitDy=0;" edge="1" parent="1" source="9_xZ20xCX4EuuCot2BVn-37" target="9_xZ20xCX4EuuCot2BVn-30">
          <mxGeometry width="50" height="50" relative="1" as="geometry">
            <mxPoint x="870" y="730" as="sourcePoint" />
            <mxPoint x="920" y="680" as="targetPoint" />
          </mxGeometry>
        </mxCell>
        <mxCell id="9_xZ20xCX4EuuCot2BVn-40" value="" style="endArrow=none;dashed=1;html=1;dashPattern=1 3;strokeWidth=2;rounded=0;exitX=0.408;exitY=0.983;exitDx=0;exitDy=0;exitPerimeter=0;entryX=0;entryY=0.5;entryDx=0;entryDy=0;" edge="1" parent="1" source="9_xZ20xCX4EuuCot2BVn-37" target="2uv9SMlyCUWuACrpGw8p-48">
          <mxGeometry width="50" height="50" relative="1" as="geometry">
            <mxPoint x="870" y="730" as="sourcePoint" />
            <mxPoint x="920" y="680" as="targetPoint" />
          </mxGeometry>
        </mxCell>
        <mxCell id="9_xZ20xCX4EuuCot2BVn-45" value="" style="edgeStyle=orthogonalEdgeStyle;rounded=0;orthogonalLoop=1;jettySize=auto;html=1;" edge="1" parent="1" source="9_xZ20xCX4EuuCot2BVn-43" target="2uv9SMlyCUWuACrpGw8p-54">
          <mxGeometry relative="1" as="geometry" />
        </mxCell>
        <mxCell id="9_xZ20xCX4EuuCot2BVn-43" value="заключение договора арены" style="rounded=1;whiteSpace=wrap;html=1;" vertex="1" parent="1">
          <mxGeometry x="490" y="880" width="120" height="60" as="geometry" />
        </mxCell>
      </root>
    </mxGraphModel>
  </diagram>
</mxfile>
